<svg width="26" height="25" viewBox="0 0 26 25" fill="none" xmlns="http://www.w3.org/2000/svg">
<path d="M23.2107 0.891113C24.9616 0.956795 25.837 1.72855 25.837 3.20638C25.837 3.66614 25.766 4.06023 25.6241 4.38864C25.4821 4.6842 25.2692 4.89767 24.9852 5.02903C24.7013 5.16039 24.4647 5.25891 24.2754 5.3246C24.0861 5.35744 23.8259 5.39028 23.4946 5.42312C22.6902 5.52164 21.0813 5.5709 18.6679 5.5709H16.6095H12.5636H10.5052C10.1266 5.5709 9.29848 5.60374 8.02083 5.66942C6.74317 5.70226 5.27624 5.7351 3.62002 5.76794H3.47806C2.43701 5.76794 1.58524 5.55448 0.92275 5.12755C0.307583 4.70063 0 4.12591 0 3.40342C0 3.00933 0.0473206 2.68093 0.141962 2.4182C0.236603 2.12264 0.567846 1.82707 1.13569 1.5315C1.70354 1.2031 2.53165 1.02248 3.62002 0.989634C4.14054 0.956794 4.87401 0.940375 5.82042 0.940375C6.29363 0.940375 6.97978 0.956794 7.87887 0.989634C8.82528 0.989634 9.5824 0.989634 10.1502 0.989634C11.7118 0.956794 13.581 0.940375 15.7577 0.940375C16.4202 0.940375 17.7925 0.940375 19.8746 0.940375C21.9567 0.907534 23.0687 0.891113 23.2107 0.891113Z" fill="#2F2F2F"/>
<path d="M23.2107 10.4697C24.9616 10.5354 25.837 11.3072 25.837 12.785C25.837 13.2448 25.766 13.6388 25.6241 13.9673C25.4821 14.2628 25.2692 14.4763 24.9852 14.6076C24.7013 14.739 24.4647 14.8375 24.2754 14.9032C24.0861 14.936 23.8259 14.9689 23.4946 15.0017C22.6902 15.1003 21.0813 15.1495 18.6679 15.1495H16.6095H12.5636H10.5052C10.1266 15.1495 9.29848 15.1824 8.02083 15.248C6.74317 15.2809 5.27624 15.3137 3.62002 15.3466H3.47806C2.43701 15.3466 1.58524 15.1331 0.92275 14.7062C0.307583 14.2792 0 13.7045 0 12.982C0 12.5879 0.0473206 12.2595 0.141962 11.9968C0.236603 11.7012 0.567846 11.4057 1.13569 11.1101C1.70354 10.7817 2.53165 10.6011 3.62002 10.5682C4.14054 10.5354 4.87401 10.519 5.82042 10.519C6.29363 10.519 6.97978 10.5354 7.87887 10.5682C8.82528 10.5682 9.5824 10.5682 10.1502 10.5682C11.7118 10.5354 13.581 10.519 15.7577 10.519C16.4202 10.519 17.7925 10.519 19.8746 10.519C21.9567 10.4861 23.0687 10.4697 23.2107 10.4697Z" fill="#2F2F2F"/>
<path d="M23.2107 20.0481C24.9616 20.1138 25.837 20.8855 25.837 22.3634C25.837 22.8231 25.766 23.2172 25.6241 23.5456C25.4821 23.8412 25.2692 24.0547 24.9852 24.186C24.7013 24.3174 24.4647 24.4159 24.2754 24.4816C24.0861 24.5144 23.8259 24.5473 23.4946 24.5801C22.6902 24.6786 21.0813 24.7279 18.6679 24.7279H16.6095H12.5636H10.5052C10.1266 24.7279 9.29848 24.7607 8.02083 24.8264C6.74317 24.8592 5.27624 24.8921 3.62002 24.9249H3.47806C2.43701 24.9249 1.58524 24.7115 0.92275 24.2845C0.307583 23.8576 0 23.2829 0 22.5604C0 22.1663 0.0473206 21.8379 0.141962 21.5752C0.236603 21.2796 0.567846 20.9841 1.13569 20.6885C1.70354 20.3601 2.53165 20.1795 3.62002 20.1466C4.14054 20.1138 4.87401 20.0974 5.82042 20.0974C6.29363 20.0974 6.97978 20.1138 7.87887 20.1466C8.82528 20.1466 9.5824 20.1466 10.1502 20.1466C11.7118 20.1138 13.581 20.0974 15.7577 20.0974C16.4202 20.0974 17.7925 20.0974 19.8746 20.0974C21.9567 20.0645 23.0687 20.0481 23.2107 20.0481Z" fill="#2F2F2F"/>
</svg>
