<svg width="25" height="24" viewBox="0 0 25 24" fill="none" xmlns="http://www.w3.org/2000/svg">
<path d="M19.0469 2.08315C20.4643 0.768194 21.7496 0.687293 22.9028 1.84045C23.2615 2.19921 23.5137 2.5621 23.6591 2.92913C23.779 3.27054 23.7794 3.60327 23.6604 3.92731C23.5413 4.25136 23.4336 4.51286 23.3371 4.71181C23.2151 4.88514 23.0376 5.11385 22.8048 5.39794C22.2539 6.10254 21.0369 7.3964 19.1538 9.27955L17.5476 10.8858L14.3905 14.0428L12.7843 15.649C12.4889 15.9444 11.8684 16.6162 10.9227 17.6644C9.95132 18.687 8.83229 19.8573 7.56556 21.1753L7.45479 21.286C6.64245 22.0984 5.81124 22.5965 4.96117 22.7803C4.14801 22.9272 3.45956 22.7187 2.89579 22.1549C2.58828 21.8474 2.36895 21.5543 2.23779 21.2754C2.08101 20.9709 2.10885 20.4818 2.32131 19.8081C2.50815 19.1087 3.01339 18.3216 3.83702 17.4467C4.21756 17.0149 4.77708 16.4298 5.51557 15.6913C5.88481 15.3221 6.43303 14.7995 7.16022 14.1235C7.89871 13.3851 8.4895 12.7943 8.93259 12.3512C10.1255 11.107 11.5712 9.6357 13.2697 7.93718C13.7866 7.42024 14.8574 6.34943 16.4821 4.72476C18.0812 3.07445 18.9361 2.19392 19.0469 2.08315Z" fill="#2F2F2F"/>
<path d="M6.79018 2.08315C5.37272 0.768194 4.08742 0.687293 2.93426 1.84045C2.5755 2.19921 2.32338 2.5621 2.17789 2.92913C2.05804 3.27054 2.05763 3.60327 2.17667 3.92731C2.29572 4.25136 2.40346 4.51286 2.49991 4.71181C2.62198 4.88514 2.79944 5.11385 3.03228 5.39794C3.58312 6.10254 4.80011 7.3964 6.68326 9.27955L8.28947 10.8858L11.4465 14.0428L13.0527 15.649C13.3481 15.9444 13.9687 16.6162 14.9144 17.6644C15.8857 18.687 17.0047 19.8573 18.2715 21.1753L18.3823 21.286C19.1946 22.0984 20.0258 22.5965 20.8759 22.7803C21.689 22.9272 22.3775 22.7187 22.9412 22.1549C23.2488 21.8474 23.4681 21.5543 23.5992 21.2754C23.756 20.9709 23.7282 20.4818 23.5157 19.8081C23.3289 19.1087 22.8237 18.3216 22 17.4467C21.6195 17.0149 21.06 16.4298 20.3215 15.6913C19.9522 15.3221 19.404 14.7995 18.6768 14.1235C17.9383 13.3851 17.3475 12.7943 16.9044 12.3512C15.7116 11.107 14.2659 9.6357 12.5673 7.93718C12.0504 7.42024 10.9796 6.34943 9.35491 4.72476C7.75586 3.07445 6.90095 2.19392 6.79018 2.08315Z" fill="#2F2F2F"/>
</svg>
