<svg width="42" height="42" viewBox="0 0 42 42" fill="none" xmlns="http://www.w3.org/2000/svg">
<path d="M23.0833 4.33342C26.9511 4.33342 30.6604 5.86987 33.3953 8.60477C36.1302 11.3397 37.6667 15.049 37.6667 18.9167C37.6667 19.4693 37.8862 19.9992 38.2769 20.3899C38.6676 20.7806 39.1975 21.0001 39.75 21.0001C40.3025 21.0001 40.8324 20.7806 41.2231 20.3899C41.6138 19.9992 41.8333 19.4693 41.8333 18.9167C41.8333 13.9439 39.8579 9.1748 36.3416 5.6585C32.8253 2.14219 28.0561 0.166748 23.0833 0.166748C22.5308 0.166748 22.0009 0.386241 21.6102 0.776942C21.2195 1.16764 21 1.69755 21 2.25008C21 2.80262 21.2195 3.33252 21.6102 3.72322C22.0009 4.11392 22.5308 4.33342 23.0833 4.33342ZM41.3125 29.1459C41.1979 28.8115 41.0001 28.5117 40.7377 28.2748C40.4753 28.0379 40.1569 27.8717 39.8125 27.7917L27.3125 24.9376C26.9732 24.8607 26.62 24.8699 26.2852 24.9645C25.9504 25.0592 25.6447 25.2361 25.3958 25.4792C25.1042 25.7501 25.0833 25.7709 23.7292 28.3542C19.2358 26.2837 15.6354 22.6685 13.5833 18.1667C16.2292 16.8334 16.25 16.8334 16.5208 16.5209C16.764 16.2721 16.9409 15.9663 17.0355 15.6315C17.1302 15.2967 17.1394 14.9435 17.0625 14.6042L14.2083 2.25008C14.1284 1.9057 13.9622 1.58731 13.7253 1.3249C13.4884 1.06248 13.1886 0.864669 12.8542 0.750081C12.3676 0.576309 11.8652 0.450707 11.3542 0.375081C10.8276 0.252988 10.2903 0.183205 9.74999 0.166748C7.20833 0.166748 4.77077 1.17642 2.97355 2.97364C1.17633 4.77087 0.166656 7.20842 0.166656 9.75008C0.177681 18.2557 3.56142 26.4098 9.57582 32.4242C15.5902 38.4387 23.7443 41.8224 32.25 41.8334C33.5085 41.8334 34.7547 41.5855 35.9174 41.1039C37.0801 40.6223 38.1365 39.9164 39.0264 39.0265C39.9163 38.1366 40.6222 37.0802 41.1038 35.9175C41.5854 34.7548 41.8333 33.5086 41.8333 32.2501C41.834 31.7198 41.7922 31.1903 41.7083 30.6667C41.6208 30.1493 41.4883 29.6404 41.3125 29.1459ZM32.25 37.6668C24.8477 37.6612 17.7502 34.7183 12.516 29.4841C7.28183 24.2499 4.33884 17.1523 4.33332 9.75008C4.33881 8.31518 4.91126 6.94062 5.92589 5.92598C6.94053 4.91135 8.31509 4.3389 9.74999 4.33342H10.4375L12.6667 14.0001L11.5417 14.5834C9.74999 15.5209 8.33332 16.2709 9.08332 17.8959C10.3046 21.3534 12.2808 24.4954 14.8682 27.0936C17.4556 29.6918 20.5893 31.681 24.0417 32.9167C25.7917 33.6251 26.4792 32.3126 27.4167 30.5001L28.0208 29.3542L37.6667 31.5626V32.2501C37.6612 33.685 37.0887 35.0595 36.0741 36.0742C35.0595 37.0888 33.6849 37.6613 32.25 37.6668Z" fill="#2F2F2F"/>
</svg>
