<?xml version="1.0" encoding="utf-8"?><svg xmlns="http://www.w3.org/2000/svg" xmlns:xlink="http://www.w3.org/1999/xlink"><symbol fill="none" viewBox="0 0 25 24" id="assets--svg--cross" xmlns="http://www.w3.org/2000/svg"><path d="M19.047 2.083C20.464.768 21.75.687 22.903 1.84c.359.36.61.722.756 1.09.12.34.12.673.001.997-.119.324-.226.586-.323.785-.122.173-.3.402-.532.686-.551.705-1.768 1.998-3.651 3.882l-1.606 1.606-3.157 3.157-1.607 1.606c-.295.295-.916.967-1.861 2.015a840.965 840.965 0 0 1-3.357 3.511l-.111.111c-.813.812-1.644 1.31-2.494 1.494-.813.147-1.501-.061-2.065-.625-.308-.308-.527-.6-.658-.88-.157-.304-.13-.793.083-1.467.187-.7.692-1.486 1.516-2.361.38-.432.94-1.017 1.679-1.756.369-.369.917-.892 1.644-1.568l1.773-1.772a300.323 300.323 0 0 1 4.337-4.414l3.212-3.212c1.6-1.65 2.454-2.531 2.565-2.642Z" fill="#2F2F2F"/><path d="M6.79 2.083C5.373.768 4.087.687 2.934 1.84c-.359.36-.61.722-.756 1.09-.12.34-.12.673-.001.997.119.324.226.586.323.785.122.173.3.402.532.686.551.705 1.768 1.998 3.651 3.882l1.606 1.606 3.158 3.157 1.606 1.606c.295.295.916.967 1.861 2.015.972 1.023 2.09 2.193 3.357 3.511l.111.111c.813.812 1.644 1.31 2.494 1.494.813.147 1.502-.061 2.065-.625.308-.308.527-.6.658-.88.157-.304.13-.793-.083-1.467-.187-.7-.692-1.486-1.516-2.361-.38-.432-.94-1.017-1.678-1.756-.37-.369-.918-.892-1.645-1.568l-1.773-1.772a299.254 299.254 0 0 0-4.337-4.414L9.355 4.725A790.167 790.167 0 0 0 6.79 2.083Z" fill="#2F2F2F"/></symbol><symbol fill="none" viewBox="0 0 47 47" id="assets--svg--instagram" xmlns="http://www.w3.org/2000/svg"><path fill-rule="evenodd" clip-rule="evenodd" d="M14.619 2.087c2.297-.105 3.03-.129 8.881-.129 5.852 0 6.584.026 8.88.13 2.294.103 3.86.47 5.232 1a10.599 10.599 0 0 1 3.815 2.487 10.522 10.522 0 0 1 2.483 3.813c.532 1.371.897 2.938 1.002 5.229.106 2.301.13 3.033.13 8.883 0 5.851-.026 6.584-.13 8.881-.103 2.291-.47 3.858-1.002 5.229a10.57 10.57 0 0 1-2.483 3.816 10.563 10.563 0 0 1-3.815 2.484c-1.371.532-2.938.897-5.229 1.002-2.3.106-3.032.13-8.883.13-5.852 0-6.584-.026-8.881-.13-2.291-.103-3.858-.47-5.229-1.002a10.57 10.57 0 0 1-3.817-2.483 10.56 10.56 0 0 1-2.485-3.815c-.53-1.371-.895-2.938-1-5.23-.106-2.3-.13-3.032-.13-8.882 0-5.852.026-6.584.13-8.88.103-2.294.47-3.861 1-5.232a10.567 10.567 0 0 1 2.487-3.815 10.56 10.56 0 0 1 3.813-2.485c1.371-.53 2.938-.895 5.229-1h.002Zm17.586 3.878c-2.272-.104-2.953-.125-8.705-.125-5.752 0-6.433.021-8.705.125-2.101.096-3.24.447-4 .742-1.005.392-1.724.856-2.478 1.61a6.682 6.682 0 0 0-1.61 2.477c-.295.76-.646 1.9-.742 4.001-.104 2.272-.125 2.953-.125 8.705 0 5.752.021 6.433.125 8.705.096 2.101.447 3.24.742 4a6.687 6.687 0 0 0 1.61 2.478 6.686 6.686 0 0 0 2.477 1.61c.76.295 1.9.646 4.001.742 2.272.104 2.951.125 8.705.125s6.433-.021 8.705-.125c2.101-.096 3.24-.447 4-.742 1.005-.392 1.724-.856 2.478-1.61a6.686 6.686 0 0 0 1.61-2.477c.295-.76.646-1.9.742-4.001.104-2.272.125-2.953.125-8.705 0-5.752-.021-6.433-.125-8.705-.096-2.101-.447-3.24-.742-4-.392-1.005-.856-1.724-1.61-2.478a6.684 6.684 0 0 0-2.477-1.61c-.76-.295-1.9-.646-4.001-.742ZM20.749 30.141a7.185 7.185 0 0 0 7.833-11.723 7.189 7.189 0 0 0-11.959 7.169 7.187 7.187 0 0 0 4.126 4.554ZM15.67 15.67a11.071 11.071 0 1 1 15.657 15.657A11.071 11.071 0 0 1 15.671 15.67Zm21.357-1.595a2.618 2.618 0 1 0-3.593-3.809 2.618 2.618 0 0 0 3.593 3.81Z" fill="#2F2F2F"/></symbol><symbol fill="none" viewBox="0 0 26 25" id="assets--svg--menu-hamburger" xmlns="http://www.w3.org/2000/svg"><path d="M23.21.891c1.752.066 2.627.838 2.627 2.315 0 .46-.071.854-.213 1.183a1.3 1.3 0 0 1-.639.64 8.03 8.03 0 0 1-.71.296c-.189.032-.45.065-.78.098-.805.099-2.414.148-4.827.148h-8.163c-.378 0-1.207.033-2.484.098-1.278.033-2.745.066-4.401.099h-.142c-1.041 0-1.893-.214-2.555-.64C.308 4.7 0 4.126 0 3.403c0-.394.047-.722.142-.985.095-.295.426-.59.994-.887.568-.328 1.396-.509 2.484-.541.52-.033 1.254-.05 2.2-.05.474 0 1.16.017 2.059.05h2.271c1.562-.033 3.431-.05 5.608-.05h4.117C21.957.908 23.069.891 23.21.891ZM23.21 10.47c1.752.065 2.627.837 2.627 2.315 0 .46-.071.854-.213 1.182a1.3 1.3 0 0 1-.639.64c-.284.132-.52.23-.71.296-.189.033-.45.066-.78.099-.805.098-2.414.147-4.827.147h-8.163c-.378 0-1.207.033-2.484.099-1.278.033-2.745.066-4.401.099h-.142c-1.041 0-1.893-.214-2.555-.64C.308 14.278 0 13.703 0 12.981c0-.394.047-.723.142-.985.095-.296.426-.591.994-.887.568-.328 1.396-.509 2.484-.542a37.37 37.37 0 0 1 2.2-.049c.474 0 1.16.016 2.059.05h2.271c1.562-.034 3.431-.05 5.608-.05h4.117c2.082-.033 3.194-.05 3.336-.05ZM23.21 20.048c1.752.066 2.627.838 2.627 2.315 0 .46-.071.854-.213 1.183a1.3 1.3 0 0 1-.639.64c-.284.131-.52.23-.71.296-.189.032-.45.065-.78.098-.805.099-2.414.148-4.827.148h-8.163c-.378 0-1.207.033-2.484.098-1.278.033-2.745.066-4.401.099h-.142c-1.041 0-1.893-.213-2.555-.64C.308 23.858 0 23.283 0 22.56c0-.394.047-.722.142-.985.095-.295.426-.59.994-.886.568-.329 1.396-.51 2.484-.542a37.37 37.37 0 0 1 2.2-.05c.474 0 1.16.017 2.059.05h2.271c1.562-.033 3.431-.05 5.608-.05h4.117c2.082-.033 3.194-.049 3.336-.049Z" fill="#2F2F2F"/></symbol><symbol fill="none" viewBox="0 0 42 42" id="assets--svg--phone" xmlns="http://www.w3.org/2000/svg"><path d="M23.083 4.333a14.583 14.583 0 0 1 14.584 14.584 2.083 2.083 0 1 0 4.166 0A18.75 18.75 0 0 0 23.083.167a2.083 2.083 0 0 0 0 4.166Zm18.23 24.813a2.084 2.084 0 0 0-1.5-1.354l-12.5-2.854a2.084 2.084 0 0 0-1.917.541c-.292.271-.313.292-1.667 2.875a20.646 20.646 0 0 1-10.146-10.187c2.646-1.334 2.667-1.334 2.938-1.646a2.082 2.082 0 0 0 .541-1.917L14.209 2.25a2.083 2.083 0 0 0-1.354-1.5 7.898 7.898 0 0 0-1.5-.375A8.209 8.209 0 0 0 9.75.167 9.583 9.583 0 0 0 .167 9.75 32.125 32.125 0 0 0 32.25 41.833a9.584 9.584 0 0 0 9.583-9.583c.001-.53-.04-1.06-.125-1.583a9.04 9.04 0 0 0-.395-1.521Zm-9.063 8.52A27.938 27.938 0 0 1 4.333 9.75 5.438 5.438 0 0 1 9.75 4.333h.688L12.666 14l-1.125.583c-1.792.938-3.209 1.688-2.459 3.313a24.687 24.687 0 0 0 14.959 15.02c1.75.71 2.437-.603 3.375-2.416l.604-1.146 9.646 2.209v.687a5.438 5.438 0 0 1-5.417 5.417Z" fill="#2F2F2F"/></symbol></svg>